<?xml version="1.0" encoding="UTF-8" standalone="no"?>
<!-- Created with Inkscape (http://www.inkscape.org/) -->
<svg
   xmlns:dc="http://purl.org/dc/elements/1.1/"
   xmlns:cc="http://web.resource.org/cc/"
   xmlns:rdf="http://www.w3.org/1999/02/22-rdf-syntax-ns#"
   xmlns:svg="http://www.w3.org/2000/svg"
   xmlns="http://www.w3.org/2000/svg"
   xmlns:sodipodi="http://inkscape.sourceforge.net/DTD/sodipodi-0.dtd"
   xmlns:inkscape="http://www.inkscape.org/namespaces/inkscape"
   id="svg1346"
   sodipodi:version="0.32"
   inkscape:version="0.43"
   width="595.28003pt"
   height="760pt"
   sodipodi:docbase="C:\foo\wikipedia\transfer"
   sodipodi:docname="London_Dragon.svg"
   version="1.0">
  <metadata
     id="metadata1351">
    <rdf:RDF>
      <cc:Work
         rdf:about="">
        <dc:format>image/svg+xml</dc:format>
        <dc:type
           rdf:resource="http://purl.org/dc/dcmitype/StillImage" />
        <cc:license
           rdf:resource="http://creativecommons.org/licenses/by-sa/2.0/" />
        <dc:title>London Dragon</dc:title>
        <dc:creator>
          <cc:Agent>
            <dc:title>Jan van der Crabben (Photographer), Staffan Vilcans (Trace)</dc:title>
          </cc:Agent>
        </dc:creator>
      </cc:Work>
      <cc:License
         rdf:about="http://creativecommons.org/licenses/by-sa/2.0/">
        <cc:permits
           rdf:resource="http://web.resource.org/cc/Reproduction" />
        <cc:permits
           rdf:resource="http://web.resource.org/cc/Distribution" />
        <cc:requires
           rdf:resource="http://web.resource.org/cc/Notice" />
        <cc:requires
           rdf:resource="http://web.resource.org/cc/Attribution" />
        <cc:permits
           rdf:resource="http://web.resource.org/cc/DerivativeWorks" />
        <cc:requires
           rdf:resource="http://web.resource.org/cc/ShareAlike" />
      </cc:License>
    </rdf:RDF>
  </metadata>
  <defs
     id="defs1349" />
  <sodipodi:namedview
     inkscape:window-height="540"
     inkscape:window-width="812"
     inkscape:pageshadow="2"
     inkscape:pageopacity="0.0"
     borderopacity="1.0"
     bordercolor="#666666"
     pagecolor="#ffffff"
     id="base"
     inkscape:zoom="0.31252973"
     inkscape:cx="368.58715"
     inkscape:cy="515.18432"
     inkscape:window-x="154"
     inkscape:window-y="154"
     inkscape:current-layer="svg1346" />
  <path
     style="fill:#000000"
     d="M 23.104937,939.04562 C 23.485879,938.42926 39.335988,938.376 39.335988,938.99114 C 39.335988,939.23508 35.739301,939.4467 31.070156,939.47752 C 25.482516,939.51438 22.901732,939.3744 23.104937,939.04562 z M 97.48122,939.18654 C 97.308574,939.01395 97.167335,938.42134 97.167335,937.86964 C 97.167335,937.31794 96.998215,936.6656 96.791475,936.41996 C 96.584791,936.17432 95.695969,934.28064 94.816328,932.21192 C 92.077567,925.77088 90.253906,923.39195 84.966571,919.36301 L 83.530194,918.26856 L 83.544625,901.26137 C 83.552571,891.90741 83.68855,883.44412 83.846803,882.45401 C 84.222569,880.1027 86.168147,878.81644 91.671525,877.28113 C 93.950036,876.64545 95.941968,875.99769 96.097968,875.84169 C 96.253978,875.68569 96.524701,872.89212 96.699562,869.63375 C 97.013494,863.78408 97.035871,863.69228 98.477423,862.34502 C 99.280393,861.59462 100.2662,860.98061 100.6681,860.98061 C 101.07001,860.98061 101.39928,860.82188 101.39979,860.62799 C 101.4003,860.434 102.06443,860.2287 102.87562,860.17158 C 104.818,860.035 106.01196,858.88993 106.3889,856.80208 C 106.55759,855.86778 107.09068,854.72497 107.57354,854.26225 C 109.4698,852.44558 108.65227,851.85486 103.49503,851.31522 C 97.178524,850.65437 90.444659,849.05949 86.458664,847.28043 C 80.32394,844.54238 75.948027,840.57301 73.188489,835.24318 C 72.151802,833.24111 70.207592,830.70049 67.934443,828.37768 C 62.084544,822.39995 59.580488,816.41695 59.561589,808.37185 C 59.545602,801.55461 62.301671,795.65864 68.064635,790.18182 C 72.018887,786.42391 74.336045,784.91997 79.235015,782.9318 C 81.769583,781.90315 83.345417,780.99218 83.438084,780.50208 C 83.519609,780.07083 82.864146,778.69557 81.981535,777.44595 C 80.260843,775.00989 67.426751,753.35548 64.472548,747.90387 C 63.491625,746.09369 61.139817,741.80684 59.246337,738.37749 C 57.35281,734.94813 54.396495,729.44711 52.676746,726.15298 C 49.582247,720.22559 45.478715,712.61893 41.202255,704.88298 C 37.953773,699.00661 34.535426,692.48958 29.981041,683.49009 L 25.936047,675.49714 L 25.936047,663.5077 C 25.936047,656.91352 26.103989,645.27673 26.309221,637.64816 C 26.743523,621.50772 26.292952,609.21126 24.310651,583.10802 C 23.554566,573.1521 22.815409,562.78477 22.668053,560.06952 C 22.520753,557.35427 22.077987,549.20852 21.68417,541.96784 C 20.971199,528.85916 19.260008,509.49718 17.944312,499.65221 C 17.564135,496.80767 16.607945,489.08507 15.819416,482.49089 C 15.030886,475.8967 14.289609,470.0522 14.172161,469.50309 C 14.054666,468.95397 13.346399,468.25116 12.598259,467.94127 C 10.462447,467.05659 8.809735,462.37018 8.7861795,457.13184 C 8.7781862,455.3496 8.5172471,454.28239 7.9239764,453.60553 C 7.4561089,453.07165 6.2429675,450.83645 5.2281391,448.63838 C 3.5676788,445.04184 3.3822417,444.26182 3.3753796,440.84395 C 3.3684232,437.39997 3.4907535,436.88461 4.6879178,435.31503 C 6.1047828,433.45742 8.0460333,432.31001 11.910201,431.04623 L 14.340433,430.25141 L 15.308896,427.06287 C 16.636949,422.69054 19.059103,420.01041 23.745036,417.72815 C 26.951997,416.16619 27.776119,415.96607 31.267621,415.90148 C 33.766125,415.85526 35.727783,415.55976 36.674622,415.087 C 43.149095,411.85431 48.619335,410.26457 51.618238,410.74414 C 53.883393,411.10632 55.641468,410.38676 59.131519,407.66888 C 60.58031,406.54065 63.436615,404.3519 65.478865,402.80507 C 67.521067,401.25825 70.567268,398.75049 72.248145,397.23229 C 75.537244,394.2615 90.169081,383.57389 96.114992,379.79905 C 98.11605,378.5287 105.22944,374.88706 111.9226,371.70657 C 121.41724,367.19483 125.70579,364.84796 131.4348,361.02874 C 145.50682,351.64769 149.12847,348.68025 163.54155,334.72187 C 169.31608,329.12954 175.52176,323.36831 177.33192,321.91919 C 180.91047,319.05437 185.509,316.30089 187.55821,315.79592 C 188.26934,315.6207 188.85118,315.28809 188.85118,315.05677 C 188.85118,314.49759 182.44276,308.43193 179.07176,305.80042 C 177.59762,304.64971 174.17001,302.2136 171.45476,300.38688 C 168.73951,298.56017 165.26967,296.14709 163.74401,295.0245 C 162.21834,293.90192 159.15046,292.00364 156.92649,290.80616 C 154.70252,289.60867 150.76712,287.40529 148.18116,285.90982 C 139.15703,280.69099 138.72156,280.55134 131.46932,280.55134 C 126.16482,280.55134 124.88882,280.69056 123.829,281.385 C 122.15043,282.48479 122.14991,284.49078 123.82721,288.13486 C 126.17535,293.23639 125.38391,297.34989 119.94922,308.29158 C 114.19368,319.87915 110.56117,323.89932 102.08243,328.06501 C 97.769391,330.18404 94.602302,330.74815 92.935774,329.69426 C 91.765417,328.95416 92.199388,325.57145 94.075948,320.80661 C 96.507913,314.63154 96.945834,312.09543 96.333627,307.7324 C 95.502077,301.80657 93.517846,298.47624 86.090759,290.54065 C 82.581479,286.79111 78.824693,283.10452 77.742355,282.34816 C 73.24251,279.20377 64.738059,276.3352 63.904775,277.68075 C 63.727708,277.96656 62.805791,279.80682 61.85604,281.77013 C 60.811831,283.92869 58.919425,286.68302 57.068872,288.73767 C 52.9486,293.31242 52.779338,295.01153 55.755862,301.91711 C 57.782927,306.61979 57.821479,307.12498 56.371651,309.98632 C 55.268907,312.16281 54.780585,312.63392 52.926402,313.31012 C 50.251302,314.28569 41.38313,314.52406 35.424097,313.78058 C 31.742972,313.32127 30.940332,313.03676 28.278636,311.24756 C 24.96175,309.01795 18.121945,302.55499 16.912611,300.50781 C 16.486737,299.7868 15.620952,298.92003 14.988714,298.5817 C 13.20417,297.62664 10.069102,293.89435 8.2813056,290.5966 C 6.6814071,287.64546 6.6604815,287.53224 6.7730841,282.43204 C 6.905585,276.42909 7.4778735,273.47955 9.1448754,270.20752 C 9.8746344,268.77513 10.46898,266.61178 10.666077,264.67043 C 11.145793,259.94514 12.928084,256.82935 17.326364,253.02677 C 21.770399,249.18465 24.592431,248.15493 32.729768,247.40632 C 35.918536,247.11292 40.454955,246.3733 42.810712,245.76263 C 45.166423,245.15202 50.038416,244.08303 53.637356,243.38713 C 59.527457,242.24823 60.74812,242.15725 65.86187,242.47598 C 68.98641,242.67073 73.793835,242.85423 76.545012,242.88376 L 81.547139,242.93745 L 87.359005,239.99929 C 90.633668,238.34376 94.794366,236.65043 96.889882,236.12036 C 101.40769,234.97756 107.78094,234.89438 112.44798,235.91729 C 114.25815,236.31408 118.5804,237.04966 122.05306,237.55194 C 130.4175,238.76179 133.69662,239.80714 151.53825,246.95123 C 166.7494,253.04209 178.95092,257.33281 186.1395,259.119 C 188.27743,259.6502 193.30607,260.49802 197.31431,261.00298 C 206.14656,262.11579 208.11744,262.5413 212.79717,264.34601 C 217.27472,266.07272 219.51458,267.95285 223.64421,273.45078 C 228.24195,279.57197 229.77499,280.86998 236.10362,283.99978 C 239.20677,285.53447 243.00272,287.55509 244.53905,288.49003 C 246.07544,289.42493 247.60632,290.1899 247.94105,290.1899 C 248.27581,290.1899 249.21446,288.86754 250.02697,287.25131 C 256.98333,273.41411 261.19246,268.2122 271.0465,261.27422 C 274.82693,258.61252 275.19042,258.20103 277.4822,253.98959 C 280.46272,248.51235 282.86156,245.76677 287.16773,242.90403 C 291.50645,240.01965 296.02684,238.48904 301.815,237.9444 C 307.1613,237.44136 308.42065,236.90983 313.74947,232.90724 C 320.29997,227.98701 325.80688,225.91628 333.98066,225.29983 C 339.0913,224.91443 339.51258,224.79989 343.20029,222.79381 C 348.04242,220.15971 350.90169,219.33982 357.32637,218.74317 C 365.64402,217.97072 364.78366,218.4172 375.5834,209.26833 C 381.05787,204.63072 383.37324,202.15723 386.7433,197.34632 C 388.9707,194.16664 389.06864,193.25215 387.72357,188.19402 C 387.21244,186.27205 386.79427,184.23346 386.79427,183.66385 C 386.79427,183.09418 386.43492,181.51548 385.99572,180.15555 C 385.30288,178.01039 384.94338,177.57073 383.28048,176.83514 C 380.85725,175.76324 371.47987,174.05702 368.01191,174.05702 C 363.76014,174.05702 360.96914,176.05893 349.97211,186.99663 C 339.76765,197.14603 337.48307,198.98822 333.30403,200.43706 C 328.88971,201.96747 325.66945,202.02413 319.69843,200.67642 C 311.72466,198.87669 309.41569,197.36904 308.17635,193.15294 C 307.10168,189.4972 305.95714,188.11809 302.81539,186.69356 C 299.41026,185.1496 298.40164,183.95179 298.40164,181.45182 C 298.40164,178.89319 299.37951,177.31768 302.36826,175.06113 C 303.80506,173.97635 305.27449,172.619 305.63366,172.04482 C 306.50239,170.65608 307.03853,159.94599 306.23834,159.96457 C 305.9364,159.97157 303.68601,160.17101 301.23754,160.40775 C 298.22895,160.69864 296.0188,160.67293 294.42001,160.32838 C 291.18447,159.63116 283.97328,160.48387 273.3686,162.81771 C 259.08721,165.96069 253.04567,165.2613 240.47755,159.0102 C 235.35455,156.4621 227.64445,150.98886 220.35281,144.72403 C 216.9038,141.76072 215.80609,141.46342 215.38387,143.3782 C 214.66639,146.63237 213.6068,149.96604 212.76646,151.6133 C 210.05103,156.93598 203.31029,160.99152 199.67886,159.48734 C 197.7164,158.67445 197.68819,157.53489 199.53644,153.73006 C 200.80694,151.11453 201.19987,149.70684 201.21186,147.72731 C 201.23894,143.26442 199.41876,141.00783 193.31783,137.94069 C 188.56338,135.55052 187.25001,134.55145 184.10501,130.93285 C 181.39705,127.81701 180.79025,126.77337 177.19421,119.04672 C 173.78499,111.72137 170.78203,108.74361 161.58112,103.56446 C 157.34231,101.17852 155.90034,99.882158 153.69894,96.478383 C 150.36226,91.319171 149.62841,88.867164 149.6182,82.843346 C 149.61044,78.250504 149.76494,77.099093 150.64427,75.196725 C 151.72016,72.868991 153.50743,71.674324 154.81729,72.407373 C 155.19376,72.618062 156.92254,74.678363 158.65899,76.985784 C 163.53294,83.462331 168.16914,86.184354 175.87341,87.092725 C 182.68725,87.89612 187.15936,88.533344 189.55644,89.04245 C 193.16845,89.809535 198.88064,92.993177 204.3474,97.286047 C 210.12564,101.8236 213.40552,103.58877 216.6351,103.89913 C 221.20899,104.33861 224.20814,102.31968 227.65851,96.478383 C 228.65137,94.797515 229.67682,93.278331 229.9373,93.102443 C 230.77049,92.539694 231.88588,93.525462 233.24826,96.028566 C 234.98767,99.224432 235.32036,103.13275 234.25909,107.90299 C 233.39148,111.8028 232.1181,113.8916 228.03912,118.10637 C 226.66263,119.52865 225.5338,120.93691 225.53055,121.23584 C 225.52236,121.99532 233.54738,129.49962 237.51414,132.44187 C 245.83067,138.6105 251.78866,141.14389 258.19962,141.2375 C 263.68363,141.31757 266.1599,140.56756 275.70352,135.93568 C 280.41618,133.64848 285.45193,131.46899 286.89409,131.09238 C 289.80747,130.33159 291.81916,129.19993 291.81921,128.32179 C 291.81921,128.00451 291.10877,127.11019 290.24045,126.33441 C 288.81484,125.06075 288.51356,124.30303 287.13539,118.52515 C 286.29594,115.00581 285.42729,111.83214 285.20514,111.47255 C 284.90531,110.98724 283.17309,110.75807 278.48546,110.58359 C 271.50741,110.32387 270.71225,110.00551 269.42102,106.95485 C 268.20642,104.08514 268.55707,102.66789 271.07001,100.29012 C 272.32914,99.098756 274.28144,97.483851 275.40844,96.701477 C 278.35673,94.654816 279.5947,92.608004 279.5947,89.779909 C 279.5947,86.769622 278.53793,84.606738 276.08521,82.596933 C 270.05232,77.653388 262.40561,77.463765 251.96696,81.998827 C 246.67839,84.296464 245.99297,84.084276 246.31109,80.248037 C 246.98165,72.162231 255.33758,63.948901 265.48947,61.397083 C 270.17141,60.220194 277.93682,60.715284 287.71483,62.814099 C 292.74888,63.894645 296.85811,64.506579 299.07987,64.506579 L 302.5599,64.506579 L 304.20212,62.588036 C 308.3948,57.689811 311.23549,57.187058 317.52731,60.229696 C 319.9575,61.404888 322.56983,62.255525 324.79013,62.594568 C 326.69725,62.885793 331.32554,64.054463 335.07517,65.191621 C 346.84409,68.760804 351.48955,70.010339 361.16981,72.210653 C 372.6529,74.820685 378.97622,75.869918 381.15219,75.526276 C 384.95016,74.926473 384.91357,74.949981 384.91357,73.108307 C 384.91357,72.160063 384.58314,70.066565 384.17925,68.456175 C 383.16631,64.417155 383.76197,62.301939 386.57441,59.951017 C 388.15265,58.631805 388.67496,57.864531 388.67496,56.86551 C 388.67496,53.830488 391.90025,49.692393 394.67094,49.172616 C 398.33863,48.484567 405.21571,49.348891 413.82925,51.580518 C 428.40463,55.35677 433.24267,57.16355 449.09226,64.749798 C 452.7126,66.482669 457.02104,68.413485 458.66655,69.040557 C 460.31206,69.667629 463.27415,70.903666 465.24898,71.787313 C 467.22381,72.670951 471.16692,74.262442 474.01147,75.32391 L 479.18337,77.25383 L 483.88511,76.718727 C 490.3406,75.984029 502.42856,73.274185 508.22764,71.261749 C 510.87218,70.344018 515.94977,68.234306 519.51115,66.573554 C 523.07257,64.912763 527.40993,62.988527 529.1497,62.297471 C 530.88953,61.606406 536.86191,58.759272 542.42172,55.970533 C 554.3977,49.963361 557.00784,48.990846 561.15376,48.990846 C 566.37867,48.990846 569.29639,51.071648 570.54853,55.690826 C 571.56381,59.436085 569.89475,61.745062 559.51553,70.953737 C 556.19702,73.898015 551.34623,79.452504 547.5766,84.624601 C 546.6301,85.923217 546.54128,86.317411 547.02166,87.086617 C 547.7618,88.271829 547.75395,90.445487 547.00591,91.430359 C 546.68266,91.855961 545.43948,92.618118 544.24332,93.124066 C 542.33337,93.931919 541.97407,94.320806 541.29438,96.315653 C 540.86864,97.565094 540.19902,101.55094 539.80628,105.17317 C 539.02185,112.40885 538.93609,112.86144 537.87782,115.35538 L 537.1498,117.07105 L 540.77254,121.42373 C 544.33823,125.7079 546.74519,129.21286 553.87559,140.50418 C 558.08372,147.16809 558.74335,148.73231 558.01718,150.32614 C 557.25848,151.99127 554.41306,152.56008 547.82871,152.36289 L 542.18663,152.19395 L 542.03387,153.79462 C 541.71707,157.11437 546.46526,167.79874 552.03545,176.30013 C 556.33568,182.86324 558.54946,187.70213 558.79312,191.07105 C 558.93866,193.08377 559.17459,193.80432 559.68774,193.80432 C 560.0711,193.80432 562.21437,193.19192 564.4505,192.44345 C 571.80407,189.98218 576.43967,188.68709 581.44609,187.69516 C 590.01053,185.99831 592.48786,185.04446 600.19623,180.4757 C 605.70222,177.21236 606.15448,176.70284 612.57215,166.53425 C 625.78152,145.60448 631.36207,132.87627 637.41232,109.87833 C 638.22861,106.77519 639.62724,101.74959 640.52025,98.710387 C 641.41318,95.671143 642.87062,89.891249 643.75883,85.866095 C 644.64713,81.840941 645.46842,78.394655 645.58398,78.207672 C 645.69954,78.020727 646.65053,74.653157 647.69728,70.724299 C 650.72048,59.376702 653.60322,54.916916 659.30367,52.768737 C 662.69646,51.490104 665.57354,51.695195 669.21122,53.474941 C 672.84681,55.253659 674.50088,58.049497 675.4333,63.991968 C 676.10678,68.284189 674.7322,80.944456 672.64632,89.660869 C 672.15118,91.729625 670.5695,99.02907 669.13128,105.88186 C 666.96991,116.1805 664.33073,128.3138 662.99498,134.09227 C 662.16568,137.67989 672.41793,123.35877 679.44103,111.11907 C 688.9442,94.557257 699.66719,69.646138 710.74902,38.385808 C 712.56456,33.264159 714.43722,25.737625 714.98958,21.341785 C 715.59897,16.491614 717.81991,11.063743 720.10986,8.8275445 C 723.1224,5.8859062 727.23373,5.4432814 731.74057,7.5753796 C 734.00959,8.6487904 734.89261,9.3857883 735.82474,10.983764 C 737.68807,14.178169 738.95426,19.482201 738.95426,24.093377 C 738.95426,29.18917 738.61709,31.024021 734.98338,45.699636 C 733.35062,52.293819 730.71709,63.190092 729.13099,69.913572 C 725.45608,85.49179 721.89985,97.522592 715.99721,114.34499 C 708.6328,135.33386 704.78031,145.16656 699.51025,156.42552 C 696.26149,163.36603 688.18051,176.20807 675.24959,194.97975 C 668.38371,204.94696 665.95068,208.60905 663.77488,212.25106 C 660.89591,217.07016 655.87742,228.18439 652.67882,236.8252 C 651.4344,240.18694 649.49519,245.30064 648.36964,248.18892 C 644.6805,257.65483 644.29592,259.30147 644.6001,264.33036 C 644.74865,266.78701 645.33947,271.61183 645.91314,275.05214 C 646.91144,281.04004 646.92247,281.41364 646.17141,283.79638 C 645.73989,285.16534 645.0172,286.59848 644.5655,286.98111 C 643.20553,288.13303 640.09882,288.77937 635.92227,288.77937 C 627.38601,288.77937 620.19711,292.11737 613.46762,299.20567 C 610.81874,301.99581 607.6075,307.57241 606.16617,311.88535 C 603.9029,318.65759 603.80534,322.90072 605.66914,333.48381 C 606.69148,339.28801 606.3906,340.65527 603.62794,342.76042 C 600.99593,344.76604 597.40313,344.51351 589.37333,341.75849 C 584.16162,339.97037 582.3523,339.55812 579.71595,339.55812 C 575.91728,339.55812 572.04651,340.47731 568.46954,342.2288 C 564.94366,343.95523 564.78201,344.22728 565.69114,346.90477 C 567.71848,352.87641 563.63157,357.41874 558.12369,355.31528 C 556.95543,354.86914 555.90717,354.59653 555.79416,354.70951 C 554.92027,355.58337 553.29137,364.44403 551.39326,378.64882 C 550.34786,386.47194 549.59981,388.72314 547.82086,389.39953 C 545.75163,390.18623 544.35301,389.93929 540.13296,388.04214 C 535.40964,385.91879 530.03349,384.69479 525.43044,384.69479 C 521.57498,384.69479 521.35926,384.96589 522.40714,388.49435 C 523.85945,393.38496 523.22006,397.94226 520.71959,400.5221 C 518.2365,403.08398 515.62135,403.66549 508.33733,403.27534 L 502.09136,402.94081 L 501.76022,406.23823 C 501.57807,408.05183 501.57111,411.08723 501.74475,412.98358 C 502.13085,417.20038 501.35088,423.7804 500.20262,425.99304 C 499.05705,428.2005 496.66522,429.47548 494.15399,429.2173 C 491.19965,428.91352 488.50795,427.38198 484.3668,423.64843 C 480.2611,419.94679 474.25863,416.72653 471.1128,416.53781 C 469.37296,416.43343 469.322,416.47894 468.28235,419.06673 C 466.91809,422.46256 466.07469,427.93707 466.48859,430.71053 C 466.66726,431.90792 467.55876,434.83677 468.46963,437.21909 C 469.50358,439.92334 470.02021,441.95464 469.84473,442.62609 C 469.43719,444.18598 466.51403,445.8631 463.48667,446.27393 C 460.47832,446.68218 459.71325,446.46125 449.86246,442.33923 C 446.40715,440.89336 442.20619,439.28602 440.52702,438.76738 C 437.57522,437.85566 434.2818,437.51389 434.2818,438.11933 C 434.2818,438.28154 434.94131,439.75389 435.74738,441.39123 C 438.787,447.56568 443.86304,451.77754 456.37995,458.51123 C 467.37445,464.42593 471.73352,467.91362 478.14165,475.92279 C 482.41088,481.25866 485.20902,486.79085 486.51559,492.47887 C 487.86231,498.34156 487.6417,498.72447 483.19955,498.23478 C 478.70882,497.73974 472.50324,497.70838 472.05159,498.17842 C 471.83654,498.40222 472.38871,499.14274 473.27865,499.82402 C 477.2865,502.89218 481.56508,507.4799 484.33187,511.67573 C 489.8707,520.07548 490.77489,522.66129 490.8109,530.20509 C 490.83526,535.29871 490.8977,535.63925 491.99495,536.65934 C 493.70224,538.24669 494.06282,539.57174 493.47749,542.10795 C 492.63255,545.76924 492.84883,551.02856 493.98274,554.39452 C 495.79964,559.78779 497.24739,562.01472 502.05346,566.80876 C 504.60274,569.35164 506.72878,571.679 506.778,571.98066 C 506.82723,572.28233 506.88012,574.64768 506.89554,577.23707 C 506.92131,581.5613 507.04727,582.1965 508.44082,585.03061 C 509.45658,587.09632 510.93292,589.03579 512.90746,590.89838 C 514.52966,592.4286 517.65533,595.50397 519.85339,597.73249 C 522.05145,599.96107 524.54807,602.2589 525.40144,602.83881 C 527.78705,604.45992 531.3464,605.19194 537.01473,605.22716 C 539.85927,605.24478 542.92716,605.51179 543.83224,605.82042 C 545.47583,606.38096 545.47822,606.38599 545.80518,609.99123 C 546.02823,612.45067 546.52572,614.37664 547.36639,616.03565 C 551.43191,624.05864 562.72639,628.68778 573.21806,626.63124 C 575.28688,626.22576 577.12466,625.89396 577.30215,625.89391 C 577.47955,625.89386 579.30658,627.58706 581.36229,629.65657 C 585.93804,634.26324 589.17529,635.94721 593.43526,635.93701 C 599.04504,635.92361 602.02063,632.84929 602.81627,626.24476 C 603.17776,623.24402 603.81863,622.60261 606.45508,622.60261 C 611.84136,622.60261 615.92676,619.04034 616.54473,613.80472 C 616.89868,610.80713 616.09596,608.05765 614.10567,605.4503 L 612.46856,603.3056 L 613.48789,601.31733 C 616.48817,595.46471 612.73947,587.54472 605.30398,584.02717 C 602.84804,582.86528 601.78027,582.63851 598.76348,582.63823 C 596.78054,582.63804 594.83012,582.51199 594.42923,582.3582 C 593.98565,582.18794 593.48532,580.98524 593.15079,579.28467 C 592.59428,576.45629 590.31046,572.10004 588.24928,569.93536 C 586.52245,568.12186 582.28415,565.7242 579.49124,564.98081 C 576.14002,564.0888 571.54891,564.12712 568.16951,565.07532 C 566.56022,565.52687 565.24991,565.67385 565.02576,565.42794 C 564.81443,565.19606 563.71668,563.20793 562.58642,561.00987 C 561.17478,558.26457 559.54937,556.01738 557.3945,553.83192 C 552.83798,549.21044 548.56228,547.52078 540.89878,547.31296 C 538.63889,547.25169 536.60012,547.08187 536.36819,546.93556 C 536.1363,546.78928 535.85974,544.34222 535.75367,541.49766 C 535.60237,537.44172 535.33371,535.82315 534.50851,533.99633 C 532.75758,530.12012 529.89916,526.77959 526.39204,524.51086 C 524.60594,523.3554 523.1471,522.15585 523.1502,521.84516 C 523.15325,521.53443 523.46159,520.13105 523.83538,518.72654 C 525.85703,511.1301 524.88524,502.0753 521.14646,493.67274 C 520.37349,491.93559 519.85786,490.21 520.00056,489.83815 C 520.14325,489.46624 520.96196,489.02808 521.81984,488.86442 C 526.3911,487.99238 527.6625,487.42126 529.80762,485.2761 C 531.90723,483.17654 533.48842,479.72871 533.48842,477.25019 C 533.48842,475.9976 534.69357,475.5948 539.36559,475.28585 C 541.7425,475.12872 545.86607,474.38918 548.77386,473.59863 C 557.13462,471.32553 561.52713,470.73655 570.11833,470.73655 C 579.18272,470.73655 582.52979,471.09886 593.72153,473.29161 C 608.72721,476.23156 630.81169,479.192 632.6048,478.50391 C 633.08288,478.32039 632.09881,477.47822 629.5964,475.92918 C 620.8968,470.5441 616.30946,465.16781 614.41107,458.13208 C 612.76473,452.03064 613.25686,447.22947 616.06608,441.98552 C 617.80809,438.73375 624.1809,432.3322 627.63335,430.36594 C 632.95535,427.33506 635.4061,429.37025 632.05356,434.03668 C 628.41325,439.10383 627.23388,442.95704 628.09041,446.9854 C 628.75692,450.12052 632.79265,454.19184 636.67267,455.64355 C 642.48397,457.81782 653.22816,456.21311 662.06444,451.85109 C 669.63755,448.11269 674.14552,441.73713 678.04033,429.25675 C 680.19247,422.36067 681.09746,416.98748 681.45178,409.00158 C 681.71118,403.1554 681.83608,402.44454 682.71137,401.83143 C 683.24573,401.45713 684.18814,401.15086 684.80554,401.15086 C 686.66859,401.15086 691.33284,403.95399 694.77907,407.14459 C 705.50978,417.07954 710.41694,428.25236 709.63845,440.97644 C 708.84441,453.95474 706.44145,459.81027 691.05854,486.25227 C 681.12517,503.32719 680.32415,504.87312 679.70166,508.17224 C 678.68366,513.56776 679.70524,518.25595 683.02724,523.43285 C 685.53832,527.346 684.68423,529.35003 679.8324,530.92878 C 670.37985,534.00465 658.34062,527.78101 654.67392,517.92325 C 653.78891,515.54389 653.64912,514.20564 653.64912,508.11534 C 653.64912,501.98992 653.78608,500.69403 654.69135,498.25801 C 655.26455,496.71537 655.73358,494.94282 655.73358,494.31899 C 655.73358,493.24888 655.62047,493.20243 653.73528,493.49779 C 652.6363,493.67001 649.19818,494.41693 646.09496,495.15764 C 631.70207,498.5931 618.60327,498.00445 594.1408,492.82285 C 580.48153,489.92955 567.88984,488.83954 561.69585,490.01422 C 556.32041,491.03365 552.83826,493.85545 550.32308,499.23024 C 546.98602,506.3614 548.05745,512.96885 553.43399,518.4153 C 559.83026,524.89457 569.06696,530.84471 591.08471,542.6692 C 593.15343,543.78017 595.69241,545.16173 596.72672,545.73924 C 597.76113,546.31676 600.08849,547.5851 601.89866,548.55775 C 626.3911,561.71833 635.89616,570.99965 642.80332,588.49946 C 645.9564,596.4879 646.5689,600.10885 646.54392,610.61318 C 646.52601,618.16436 646.36012,620.23754 645.47162,624.01313 C 643.40093,632.81275 641.42157,637.46564 636.77098,644.46568 C 630.57557,653.79082 625.11398,658.1285 614.04468,662.51507 C 607.89414,664.95245 604.31331,665.76238 596.81693,666.41178 C 586.48427,667.30685 569.35926,665.51427 559.58302,662.51432 C 554.17751,660.85555 539.92186,655.15667 533.43839,652.06265 C 529.40896,650.13974 516.929,643.35912 499.87101,633.82485 C 496.25067,631.80132 493.22332,630.33687 493.14358,630.57059 C 493.06379,630.80427 493.41675,631.81523 493.92792,632.81717 C 494.43905,633.81912 495.20279,636.31169 495.62511,638.35629 C 496.74638,643.78468 498.44243,646.5067 504.85156,653.16389 C 518.64335,667.48941 520.09303,669.68066 521.25145,677.95256 C 521.61207,680.52766 521.55396,682.90913 521.01105,687.8059 C 520.61728,691.35755 520.42883,695.22468 520.59221,696.39955 C 520.89886,698.60381 525.29592,716.21901 526.99367,722.04432 C 528.10949,725.87299 535.31786,742.35887 540.42244,752.75653 C 543.26639,758.54939 547.64305,765.44411 549.42975,766.94589 C 550.20135,767.5945 555.67331,774.58349 557.34426,777.05463 C 559.69905,780.53716 560.56464,782.58053 561.72592,787.39844 C 562.938,792.42694 562.87372,795.09227 561.40685,800.62057 C 559.8379,806.53352 559.77993,807.53635 560.99362,807.77491 C 561.51072,807.87657 562.03971,808.09397 562.16903,808.25802 C 562.29826,808.42206 563.42118,809.03545 564.66428,809.6211 C 567.26585,810.84675 568.28131,812.64822 568.28131,816.03803 C 568.28131,817.91534 568.50282,818.35072 570.32947,820.06281 C 573.27113,822.81991 574.71293,825.78393 575.59294,830.88319 C 576.38453,835.47026 576.18263,837.6092 574.68569,840.49439 C 574.09638,841.63041 574.10184,842.05995 574.72961,843.90217 C 575.80983,847.0724 575.38085,852.95487 573.82133,856.35802 C 572.18931,859.91934 568.9809,864.58529 567.6837,865.28385 C 566.76957,865.77617 560.6852,866.62535 557.56765,866.69577 C 556.66087,866.71622 556.58518,866.83159 557.08448,867.43325 C 557.41005,867.82547 557.80943,869.54901 557.97212,871.2635 C 558.39685,875.7398 559.81235,878.44279 562.41147,879.74084 C 563.90341,880.48596 564.72969,880.65723 565.29808,880.33911 C 566.28573,879.78646 570.16198,881.11383 570.16198,882.00477 C 570.16198,882.33685 570.34842,882.6086 570.57634,882.6086 C 571.70133,882.6086 572.04302,887.50548 572.05509,903.80242 C 572.06913,922.66398 572.19497,921.85269 568.87863,924.27667 C 564.2714,927.6441 561.16762,931.57284 559.08061,936.67852 L 558.02349,939.26449 L 327.90935,939.38251 C 201.34651,939.44745 97.653913,939.35922 97.48122,939.18654 z M 400.42333,841.10812 C 402.10749,838.37242 404.01437,835.62447 404.66086,835.0016 C 406.1814,833.53671 411.73994,829.25513 412.65381,828.8449 C 415.58365,827.52964 416.62838,826.45157 417.07909,824.27853 C 417.51221,822.1902 419.92086,819.42126 422.56371,817.97355 C 424.69627,816.8054 425.69032,816.56599 428.63971,816.51037 L 432.16602,816.44379 L 433.19668,814.6158 C 434.58995,812.1448 437.21107,809.94341 439.81748,809.05534 C 442.79076,808.04222 447.05402,808.10954 449.32218,809.20537 L 451.15223,810.08958 L 453.45529,808.53863 C 457.54735,805.78284 462.22599,805.35211 466.2536,807.36037 C 471.03531,809.74461 473.26845,810.5251 475.57874,810.61956 C 476.9579,810.67598 478.33316,810.53667 478.63487,810.3101 C 478.93654,810.08347 479.66168,809.87359 480.24625,809.84373 C 481.48562,809.78035 486.25084,808.1511 489.29211,806.75088 C 492.17107,805.42542 496.45736,801.05082 497.19756,798.6826 C 497.52085,797.64823 498.02248,794.47456 498.31224,791.63001 C 498.81792,786.66648 498.77833,786.11712 497.33019,777.99497 C 495.61199,768.35787 494.05581,762.1977 492.08837,757.24494 C 489.39305,750.45992 484.25354,740.88657 481.52033,737.56004 C 480.03302,735.74988 477.89581,732.87274 476.77091,731.16643 C 473.39431,726.0445 471.27623,724.00066 463.29678,718.1644 C 452.90274,710.56207 449.5206,708.32371 443.21509,704.87414 C 435.03901,700.40119 428.51169,695.80154 417.05253,686.43797 C 410.023,680.69392 406.01576,676.54651 402.34169,671.21248 C 394.17792,659.36016 387.96156,649.74991 384.50029,643.63018 L 380.57072,636.68243 L 376.27723,637.04775 C 369.89942,637.59042 359.62031,637.35576 352.70669,636.50964 C 349.34494,636.09823 342.78602,635.34797 338.1313,634.8425 C 333.47658,634.33701 326.87299,633.56184 323.45672,633.11992 C 315.93351,632.14671 314.26581,632.47423 311.21612,635.52392 L 309.21563,637.52441 L 309.22484,641.93539 C 309.22997,644.36144 309.53995,648.039 309.91369,650.10776 C 311.17545,657.09092 310.68055,661.35986 308.54727,661.8945 C 308.00978,662.0292 305.25404,661.38859 302.42341,660.4709 C 299.59277,659.55322 297.12032,658.96188 296.92906,659.15682 C 296.10978,659.99189 293.70963,665.50289 292.28755,669.81419 C 290.55223,675.07529 288.94598,677.07141 284.18082,679.88879 C 277.13268,684.05594 269.37668,686.42862 249.26849,690.56902 C 239.61267,692.55724 235.22398,694.07595 230.21701,697.16179 C 223.13445,701.52683 213.05276,710.35777 207.35975,717.18333 C 204.19045,720.98313 200.59386,726.71145 200.6224,727.91401 C 200.65366,729.23111 202.70127,731.10319 205.30726,732.19725 C 209.32541,733.88418 214.11421,737.12739 214.93744,738.7193 C 215.43926,739.68975 216.02608,740.146 216.77239,740.146 C 218.16763,740.146 223.06999,742.74483 224.17993,744.07294 C 224.64417,744.62835 225.24656,745.71756 225.51856,746.49335 C 225.7906,747.26913 226.84323,748.49069 227.85772,749.20793 C 230.04887,750.75706 232.68749,755.66037 233.54127,759.76982 C 234.08037,762.36438 234.04897,762.58146 232.80042,764.89057 L 231.49658,767.3019 L 232.27204,771.54038 C 233.29203,777.11556 233.25066,780.57195 232.11481,784.67063 C 231.00356,788.68074 228.98064,792.30131 226.31602,795.04911 L 224.36823,797.05774 L 224.48714,805.8631 C 224.55254,810.70607 224.90564,817.41902 225.27181,820.78077 C 225.63798,824.14251 226.0808,830.06453 226.25584,833.94089 C 226.65708,842.82685 226.75239,843.10124 229.38264,842.94411 C 230.49324,842.87775 232.2482,843.0527 233.28259,843.33274 C 234.31697,843.61288 237.70222,843.78839 240.80536,843.72279 C 247.99036,843.57094 247.4026,843.56566 250.55412,843.80998 C 253.06147,844.00444 253.34141,843.92149 254.55141,842.62683 C 256.23072,840.82996 257.97567,840.35913 262.25252,840.54906 C 265.50405,840.69338 269.24178,841.75172 269.25805,842.53257 C 269.29054,844.09568 270.04715,844.19937 282.48847,844.34669 C 293.65787,844.47885 310.88456,844.74598 339.77691,845.23481 C 345.33671,845.32888 360.13529,845.53069 372.66264,845.6833 C 385.19004,845.83581 395.5189,846.03988 395.61571,846.13659 C 396.35901,846.87992 397.79445,845.37856 400.42333,841.10812 z M 160.92089,718.17291 C 165.68295,708.20377 171.8947,698.01102 175.8049,693.75002 C 176.90336,692.55305 182.77419,687.39342 188.85118,682.28423 C 204.34819,669.25515 214.52647,658.64109 221.76488,647.96128 C 226.24375,641.35299 227.9463,637.82217 229.53854,631.83982 C 231.64366,623.9308 232.08891,618.85608 232.10235,602.62023 C 232.10921,594.34518 232.32187,585.76827 232.57488,583.56038 C 233.60625,574.56079 235.99986,568.5003 243.44835,556.02922 C 249.52581,545.85373 255.66331,537.82674 262.85584,530.64686 C 270.51464,523.00155 276.11145,519.20011 289.46833,512.57108 C 294.76955,509.94009 299.46931,507.46528 299.91225,507.07151 C 300.62946,506.43391 300.64409,506.22035 300.04578,505.11968 C 298.42143,502.13158 289.0261,492.01425 284.9471,488.8607 C 282.5897,487.03816 278.60277,483.96295 276.08728,482.02687 C 260.09945,469.72167 242.43935,442.80913 234.43178,418.54728 C 233.45025,415.57343 232.12943,411.97661 231.49663,410.55433 C 227.88221,402.43081 225.52472,391.91783 225.52472,383.92323 C 225.52472,379.39913 225.45617,379.04663 224.46682,378.48154 C 223.67063,378.02674 220.03577,377.87999 209.7739,377.88831 C 197.01941,377.89871 195.66386,377.98296 188.78352,379.19347 C 181.11066,380.54338 171.22357,383.12041 168.6891,384.43107 C 167.11633,385.24437 164.55416,387.37054 153.35307,397.15754 C 146.22854,403.38259 133.19702,413.95167 125.84792,419.4653 C 118.0674,425.30254 105.88233,437.51925 106.19927,439.16495 C 106.30563,439.71717 106.98503,439.96481 108.69148,440.07347 C 111.68827,440.26422 115.70252,441.38704 118.02391,442.68378 C 119.55375,443.53837 120.19145,444.43541 122.08851,448.40123 C 125.10359,454.70433 126.83115,459.96628 127.13117,463.76039 C 127.36682,466.74011 127.27269,467.12011 125.20289,471.54802 C 123.61906,474.93619 123.03093,476.7708 123.04174,478.28908 C 123.05622,480.31873 123.13629,480.42875 126.00336,482.36032 C 130.15664,485.15842 134.66443,489.35203 135.69928,491.3805 C 136.92958,493.79212 139.67686,501.80923 141.66668,508.79446 C 145.06345,520.71901 145.22063,522.07447 143.71452,526.45211 C 142.32769,530.48291 142.43724,531.20669 144.53732,531.88816 C 147.06902,532.70975 151.06027,535.44056 154.10813,538.43655 C 157.21673,541.49225 159.18953,545.78128 160.45956,552.24504 C 161.92467,559.70189 160.80368,562.58481 153.12302,571.11296 C 148.30284,576.46504 145.44481,580.60901 142.11941,587.06745 C 136.22644,598.51256 134.06139,609.92799 135.91481,619.78157 C 136.27961,621.72103 136.93,627.22206 137.36007,632.00608 C 138.45723,644.21028 139.63585,652.40235 142.03962,664.5309 C 143.18374,670.30374 144.26255,676.08485 144.43694,677.37782 C 144.71815,679.46258 145.47466,682.82182 148.88427,697.12512 C 150.89703,705.56882 155.46885,726.79095 155.46885,727.69054 C 155.46885,727.81757 155.64781,727.92149 155.86653,727.92149 C 156.08526,727.92149 158.35972,723.53463 160.92089,718.17291 z "
     id="path1405" />
</svg>
